<?xml version="1.0" encoding="utf-8" standalone="no"?>
<!DOCTYPE svg PUBLIC "-//W3C//DTD SVG 1.1//EN"
  "http://www.w3.org/Graphics/SVG/1.1/DTD/svg11.dtd">
<svg xmlns:xlink="http://www.w3.org/1999/xlink" width="720pt" height="432pt" viewBox="0 0 720 432" xmlns="http://www.w3.org/2000/svg" version="1.1">
 <metadata>
  <rdf:RDF xmlns:dc="http://purl.org/dc/elements/1.1/" xmlns:cc="http://creativecommons.org/ns#" xmlns:rdf="http://www.w3.org/1999/02/22-rdf-syntax-ns#">
   <cc:Work>
    <dc:type rdf:resource="http://purl.org/dc/dcmitype/StillImage"/>
    <dc:date>2025-03-27T13:44:17.663565</dc:date>
    <dc:format>image/svg+xml</dc:format>
    <dc:creator>
     <cc:Agent>
      <dc:title>Matplotlib v3.7.5, https://matplotlib.org/</dc:title>
     </cc:Agent>
    </dc:creator>
   </cc:Work>
  </rdf:RDF>
 </metadata>
 <defs>
  <style type="text/css">*{stroke-linejoin: round; stroke-linecap: butt}</style>
 </defs>
 <g id="figure_1">
  <g id="patch_1">
   <path d="M 0 432 
L 720 432 
L 720 0 
L 0 0 
z
" style="fill: #ffffff"/>
  </g>
  <g id="axes_1">
   <g id="patch_2">
    <path d="M 61.04 357.882484 
L 709.2 357.882484 
L 709.2 29.76 
L 61.04 29.76 
z
" style="fill: #ffffff"/>
   </g>
   <g id="patch_3">
    <path d="M 90.501818 357.882484 
L 127.329091 357.882484 
L 127.329091 45.38488 
L 90.501818 45.38488 
z
" clip-path="url(#pd243842b02)" style="fill: #87ceeb"/>
   </g>
   <g id="patch_4">
    <path d="M 136.535909 357.882484 
L 173.363182 357.882484 
L 173.363182 167.434768 
L 136.535909 167.434768 
z
" clip-path="url(#pd243842b02)" style="fill: #87ceeb"/>
   </g>
   <g id="patch_5">
    <path d="M 182.57 357.882484 
L 219.397273 357.882484 
L 219.397273 220.809883 
L 182.57 220.809883 
z
" clip-path="url(#pd243842b02)" style="fill: #87ceeb"/>
   </g>
   <g id="patch_6">
    <path d="M 228.604091 357.882484 
L 265.431364 357.882484 
L 265.431364 240.089669 
L 228.604091 240.089669 
z
" clip-path="url(#pd243842b02)" style="fill: #87ceeb"/>
   </g>
   <g id="patch_7">
    <path d="M 274.638182 357.882484 
L 311.465455 357.882484 
L 311.465455 263.922088 
L 274.638182 263.922088 
z
" clip-path="url(#pd243842b02)" style="fill: #87ceeb"/>
   </g>
   <g id="patch_8">
    <path d="M 320.672273 357.882484 
L 357.499545 357.882484 
L 357.499545 277.87123 
L 320.672273 277.87123 
z
" clip-path="url(#pd243842b02)" style="fill: #87ceeb"/>
   </g>
   <g id="patch_9">
    <path d="M 366.706364 357.882484 
L 403.533636 357.882484 
L 403.533636 285.1001 
L 366.706364 285.1001 
z
" clip-path="url(#pd243842b02)" style="fill: #87ceeb"/>
   </g>
   <g id="patch_10">
    <path d="M 412.740455 357.882484 
L 449.567727 357.882484 
L 449.567727 300.285073 
L 412.740455 300.285073 
z
" clip-path="url(#pd243842b02)" style="fill: #87ceeb"/>
   </g>
   <g id="patch_11">
    <path d="M 458.774545 357.882484 
L 495.601818 357.882484 
L 495.601818 301.059154 
L 458.774545 301.059154 
z
" clip-path="url(#pd243842b02)" style="fill: #87ceeb"/>
   </g>
   <g id="patch_12">
    <path d="M 504.808636 357.882484 
L 541.635909 357.882484 
L 541.635909 306.454822 
L 504.808636 306.454822 
z
" clip-path="url(#pd243842b02)" style="fill: #87ceeb"/>
   </g>
   <g id="patch_13">
    <path d="M 550.842727 357.882484 
L 587.67 357.882484 
L 587.67 310.538949 
L 550.842727 310.538949 
z
" clip-path="url(#pd243842b02)" style="fill: #87ceeb"/>
   </g>
   <g id="patch_14">
    <path d="M 596.876818 357.882484 
L 633.704091 357.882484 
L 633.704091 311.614261 
L 596.876818 311.614261 
z
" clip-path="url(#pd243842b02)" style="fill: #87ceeb"/>
   </g>
   <g id="patch_15">
    <path d="M 642.910909 357.882484 
L 679.738182 357.882484 
L 679.738182 333.998435 
L 642.910909 333.998435 
z
" clip-path="url(#pd243842b02)" style="fill: #87ceeb"/>
   </g>
   <g id="matplotlib.axis_1">
    <g id="xtick_1">
     <g id="line2d_1">
      <defs>
       <path id="m4402cac4ec" d="M 0 0 
L 0 3.5 
" style="stroke: #000000; stroke-width: 0.8"/>
      </defs>
      <g>
       <use xlink:href="#m4402cac4ec" x="108.915455" y="357.882484" style="stroke: #000000; stroke-width: 0.8"/>
      </g>
     </g>
     <g id="text_1">
      <!-- $\bar{h}$ -->
      <g transform="translate(107.572022 376.822172) rotate(-30) scale(0.14 -0.14)">
       <defs>
        <path id="TimesNewRomanPSMT-304" d="M 991 3828 
L -1003 3828 
L -1003 4228 
L 991 4228 
L 991 3828 
z
" transform="scale(0.015625)"/>
        <path id="TimesNewRomanPS-ItalicMT-68" d="M 1878 4444 
L 1000 1409 
Q 1569 2266 1887 2547 
Q 2206 2828 2497 2828 
Q 2647 2828 2747 2725 
Q 2847 2622 2847 2450 
Q 2847 2244 2759 1950 
L 2378 641 
Q 2306 403 2306 378 
Q 2306 334 2332 306 
Q 2359 278 2394 278 
Q 2434 278 2488 319 
Q 2666 456 2841 700 
L 2938 641 
Q 2831 475 2642 276 
Q 2453 78 2317 1 
Q 2181 -75 2075 -75 
Q 1959 -75 1886 -1 
Q 1813 72 1813 188 
Q 1813 325 1922 700 
L 2281 1950 
Q 2350 2184 2350 2319 
Q 2350 2381 2311 2418 
Q 2272 2456 2209 2456 
Q 2119 2456 2003 2388 
Q 1791 2256 1513 1900 
Q 1438 1803 1013 1119 
Q 881 900 797 641 
L 597 0 
L 128 0 
L 1156 3575 
L 1266 3963 
Q 1266 4044 1198 4106 
Q 1131 4169 1034 4169 
Q 978 4169 863 4150 
L 797 4141 
L 797 4263 
L 1878 4444 
z
" transform="scale(0.015625)"/>
       </defs>
       <use xlink:href="#TimesNewRomanPSMT-304" transform="translate(31.171875 22.9375)"/>
       <use xlink:href="#TimesNewRomanPS-ItalicMT-68" transform="translate(0 0.8125)"/>
      </g>
     </g>
    </g>
    <g id="xtick_2">
     <g id="line2d_2">
      <g>
       <use xlink:href="#m4402cac4ec" x="154.949545" y="357.882484" style="stroke: #000000; stroke-width: 0.8"/>
      </g>
     </g>
     <g id="text_2">
      <!-- $G_r$ -->
      <g transform="translate(150.149881 380.407046) rotate(-30) scale(0.14 -0.14)">
       <defs>
        <path id="TimesNewRomanPS-ItalicMT-47" d="M 4606 4334 
L 4291 3000 
L 4172 3000 
Q 4200 3234 4200 3347 
Q 4200 3653 3929 3889 
Q 3659 4125 3184 4125 
Q 2213 4125 1597 3213 
Q 1106 2491 1106 1597 
Q 1106 1003 1409 572 
Q 1713 141 2344 141 
Q 2500 141 2639 169 
Q 2778 197 3059 294 
L 3369 1384 
Q 3434 1609 3434 1744 
Q 3434 1856 3353 1916 
Q 3222 2006 2928 2006 
L 2841 2006 
L 2875 2128 
L 4638 2128 
L 4606 2006 
Q 4366 2003 4256 1950 
Q 4147 1897 4069 1769 
Q 4016 1684 3897 1278 
L 3584 206 
Q 3156 22 2893 -39 
Q 2631 -100 2341 -100 
Q 1672 -100 1256 151 
Q 841 403 642 817 
Q 444 1231 444 1641 
Q 444 2191 675 2686 
Q 906 3181 1251 3523 
Q 1597 3866 2003 4063 
Q 2563 4334 3178 4334 
Q 3631 4334 3997 4184 
Q 4144 4125 4213 4125 
Q 4291 4125 4345 4161 
Q 4400 4197 4488 4334 
L 4606 4334 
z
" transform="scale(0.015625)"/>
        <path id="TimesNewRomanPS-ItalicMT-72" d="M 334 2653 
L 1413 2828 
L 963 1309 
Q 1509 2244 1956 2616 
Q 2209 2828 2369 2828 
Q 2472 2828 2531 2767 
Q 2591 2706 2591 2591 
Q 2591 2384 2484 2197 
Q 2409 2056 2269 2056 
Q 2197 2056 2145 2103 
Q 2094 2150 2081 2247 
Q 2075 2306 2053 2325 
Q 2028 2350 1994 2350 
Q 1941 2350 1894 2325 
Q 1813 2281 1647 2081 
Q 1388 1775 1084 1288 
Q 953 1081 859 822 
Q 728 466 709 394 
L 609 0 
L 131 0 
L 709 1941 
Q 809 2278 809 2422 
Q 809 2478 763 2516 
Q 700 2566 597 2566 
Q 531 2566 356 2538 
L 334 2653 
z
" transform="scale(0.015625)"/>
       </defs>
       <use xlink:href="#TimesNewRomanPS-ItalicMT-47" transform="translate(0 0.28125)"/>
       <use xlink:href="#TimesNewRomanPS-ItalicMT-72" transform="translate(72.216797 -24.496875) scale(0.7)"/>
      </g>
     </g>
    </g>
    <g id="xtick_3">
     <g id="line2d_3">
      <g>
       <use xlink:href="#m4402cac4ec" x="200.983636" y="357.882484" style="stroke: #000000; stroke-width: 0.8"/>
      </g>
     </g>
     <g id="text_3">
      <!-- $\sigma_h$ -->
      <g transform="translate(196.947282 378.972476) rotate(-30) scale(0.14 -0.14)">
       <defs>
        <path id="TimesNewRomanPS-ItalicMT-3c3" d="M 3375 2753 
L 3250 2313 
L 2234 2313 
Q 2675 1947 2675 1494 
Q 2675 900 2214 412 
Q 1753 -75 1109 -75 
Q 659 -75 414 173 
Q 169 422 169 844 
Q 169 1244 356 1678 
Q 544 2113 869 2361 
Q 1194 2609 1547 2681 
Q 1900 2753 2644 2753 
L 3375 2753 
z
M 2081 2313 
Q 1294 2306 970 1747 
Q 647 1188 647 619 
Q 647 69 1122 69 
Q 1578 69 1892 675 
Q 2206 1281 2206 1813 
Q 2206 2131 2081 2313 
z
" transform="scale(0.015625)"/>
       </defs>
       <use xlink:href="#TimesNewRomanPS-ItalicMT-3c3" transform="translate(0 0.984375)"/>
       <use xlink:href="#TimesNewRomanPS-ItalicMT-68" transform="translate(49.316406 -23.79375) scale(0.7)"/>
      </g>
     </g>
    </g>
    <g id="xtick_4">
     <g id="line2d_4">
      <g>
       <use xlink:href="#m4402cac4ec" x="247.017727" y="357.882484" style="stroke: #000000; stroke-width: 0.8"/>
      </g>
     </g>
     <g id="text_4">
      <!-- B -->
      <g transform="translate(244.996703 377.576802) rotate(-30) scale(0.14 -0.14)">
       <defs>
        <path id="TimesNewRomanPS-ItalicMT-42" d="M 947 4122 
L 991 4238 
L 2503 4238 
Q 2884 4238 3182 4119 
Q 3481 4000 3629 3787 
Q 3778 3575 3778 3338 
Q 3778 2972 3514 2676 
Q 3250 2381 2653 2241 
Q 3038 2097 3219 1859 
Q 3400 1622 3400 1338 
Q 3400 1022 3237 734 
Q 3075 447 2820 287 
Q 2566 128 2206 53 
Q 1950 0 1406 0 
L -147 0 
L -106 116 
Q 138 122 225 163 
Q 350 216 403 303 
Q 478 422 603 847 
L 1363 3413 
Q 1459 3738 1459 3869 
Q 1459 3984 1373 4051 
Q 1288 4119 1047 4119 
Q 994 4119 947 4122 
z
M 1581 2363 
Q 1784 2356 1875 2356 
Q 2525 2356 2842 2639 
Q 3159 2922 3159 3347 
Q 3159 3669 2965 3848 
Q 2772 4028 2347 4028 
Q 2234 4028 2059 3991 
L 1581 2363 
z
M 966 275 
Q 1303 231 1494 231 
Q 1981 231 2357 525 
Q 2734 819 2734 1322 
Q 2734 1706 2501 1922 
Q 2269 2138 1750 2138 
Q 1650 2138 1506 2128 
L 966 275 
z
" transform="scale(0.015625)"/>
       </defs>
       <use xlink:href="#TimesNewRomanPS-ItalicMT-42"/>
      </g>
     </g>
    </g>
    <g id="xtick_5">
     <g id="line2d_5">
      <g>
       <use xlink:href="#m4402cac4ec" x="293.051818" y="357.882484" style="stroke: #000000; stroke-width: 0.8"/>
      </g>
     </g>
     <g id="text_5">
      <!-- $sk_h$ -->
      <g transform="translate(287.135339 381.979533) rotate(-30) scale(0.14 -0.14)">
       <defs>
        <path id="TimesNewRomanPS-ItalicMT-73" d="M 2322 2828 
L 2131 1869 
L 2016 1869 
Q 2000 2288 1837 2478 
Q 1675 2669 1434 2669 
Q 1241 2669 1127 2562 
Q 1013 2456 1013 2306 
Q 1013 2203 1058 2109 
Q 1103 2016 1256 1847 
Q 1663 1403 1781 1178 
Q 1900 953 1900 753 
Q 1900 428 1629 176 
Q 1359 -75 947 -75 
Q 722 -75 428 31 
Q 325 69 269 69 
Q 128 69 56 -75 
L -59 -75 
L 131 938 
L 247 938 
Q 266 463 444 266 
Q 622 69 931 69 
Q 1169 69 1308 201 
Q 1447 334 1447 528 
Q 1447 653 1397 759 
Q 1309 947 1029 1278 
Q 750 1609 670 1775 
Q 591 1941 591 2106 
Q 591 2409 811 2618 
Q 1031 2828 1378 2828 
Q 1478 2828 1559 2813 
Q 1603 2803 1764 2742 
Q 1925 2681 1978 2681 
Q 2113 2681 2203 2828 
L 2322 2828 
z
" transform="scale(0.015625)"/>
        <path id="TimesNewRomanPS-ItalicMT-6b" d="M 1831 4444 
L 944 1372 
L 1300 1675 
Q 1884 2169 2059 2406 
Q 2116 2484 2116 2525 
Q 2116 2553 2097 2578 
Q 2078 2603 2023 2618 
Q 1969 2634 1831 2634 
L 1722 2634 
L 1756 2753 
L 3122 2753 
L 3091 2634 
Q 2856 2622 2686 2561 
Q 2516 2500 2356 2381 
Q 2041 2147 1941 2056 
L 1672 1819 
Q 1741 1594 1841 1191 
Q 2009 522 2069 397 
Q 2128 272 2191 272 
Q 2244 272 2316 325 
Q 2478 444 2663 703 
L 2772 625 
Q 2431 197 2250 61 
Q 2069 -75 1919 -75 
Q 1788 -75 1716 28 
Q 1591 213 1300 1481 
L 872 1109 
L 550 0 
L 63 0 
L 1100 3566 
L 1188 3869 
Q 1203 3947 1203 4006 
Q 1203 4081 1145 4131 
Q 1088 4181 978 4181 
Q 906 4181 750 4150 
L 750 4259 
L 1831 4444 
z
" transform="scale(0.015625)"/>
       </defs>
       <use xlink:href="#TimesNewRomanPS-ItalicMT-73" transform="translate(0 0.5625)"/>
       <use xlink:href="#TimesNewRomanPS-ItalicMT-6b" transform="translate(38.916016 0.5625)"/>
       <use xlink:href="#TimesNewRomanPS-ItalicMT-68" transform="translate(83.300781 -24.215625) scale(0.7)"/>
      </g>
     </g>
    </g>
    <g id="xtick_6">
     <g id="line2d_6">
      <g>
       <use xlink:href="#m4402cac4ec" x="339.085909" y="357.882484" style="stroke: #000000; stroke-width: 0.8"/>
      </g>
     </g>
     <g id="text_6">
      <!-- H -->
      <g transform="translate(336.389521 378.356646) rotate(-30) scale(0.14 -0.14)">
       <defs>
        <path id="TimesNewRomanPS-ItalicMT-48" d="M 1578 2347 
L 3534 2347 
L 3844 3394 
Q 3931 3700 3931 3869 
Q 3931 3950 3892 4008 
Q 3853 4066 3772 4094 
Q 3691 4122 3453 4122 
L 3484 4238 
L 5191 4238 
L 5153 4122 
Q 4938 4125 4831 4078 
Q 4681 4013 4609 3909 
Q 4506 3763 4400 3394 
L 3653 834 
Q 3559 516 3559 378 
Q 3559 259 3642 198 
Q 3725 138 4038 116 
L 4003 0 
L 2353 0 
L 2397 116 
Q 2641 122 2722 159 
Q 2847 216 2903 303 
Q 2984 425 3103 834 
L 3484 2131 
L 1519 2131 
L 1134 834 
Q 1044 522 1044 378 
Q 1044 259 1125 198 
Q 1206 138 1519 116 
L 1494 0 
L -169 0 
L -128 116 
Q 119 122 200 159 
Q 325 216 384 303 
Q 466 431 584 834 
L 1334 3394 
Q 1425 3706 1425 3869 
Q 1425 3950 1386 4008 
Q 1347 4066 1264 4094 
Q 1181 4122 941 4122 
L 978 4238 
L 2650 4238 
L 2616 4122 
Q 2406 4125 2306 4078 
Q 2159 4016 2091 3913 
Q 1997 3775 1884 3394 
L 1578 2347 
z
" transform="scale(0.015625)"/>
       </defs>
       <use xlink:href="#TimesNewRomanPS-ItalicMT-48"/>
      </g>
     </g>
    </g>
    <g id="xtick_7">
     <g id="line2d_7">
      <g>
       <use xlink:href="#m4402cac4ec" x="385.12" y="357.882484" style="stroke: #000000; stroke-width: 0.8"/>
      </g>
     </g>
     <g id="text_7">
      <!-- V -->
      <g transform="translate(383.098976 377.576802) rotate(-30) scale(0.14 -0.14)">
       <defs>
        <path id="TimesNewRomanPS-ItalicMT-56" d="M 972 -97 
L 1322 3431 
Q 1347 3700 1347 3794 
Q 1347 3934 1242 4028 
Q 1138 4122 913 4122 
L 800 4122 
L 831 4238 
L 2503 4238 
L 2469 4122 
Q 2197 4119 2095 4066 
Q 1994 4013 1934 3884 
Q 1903 3816 1869 3494 
L 1619 966 
L 3272 3222 
Q 3541 3588 3609 3731 
Q 3656 3828 3656 3900 
Q 3656 3984 3584 4046 
Q 3513 4109 3316 4122 
L 3353 4238 
L 4628 4238 
L 4597 4122 
Q 4444 4109 4353 4063 
Q 4181 3981 4011 3815 
Q 3841 3650 3472 3147 
L 1084 -97 
L 972 -97 
z
" transform="scale(0.015625)"/>
       </defs>
       <use xlink:href="#TimesNewRomanPS-ItalicMT-56"/>
      </g>
     </g>
    </g>
    <g id="xtick_8">
     <g id="line2d_8">
      <g>
       <use xlink:href="#m4402cac4ec" x="431.154091" y="357.882484" style="stroke: #000000; stroke-width: 0.8"/>
      </g>
     </g>
     <g id="text_8">
      <!-- S -->
      <g transform="translate(429.804643 376.801333) rotate(-30) scale(0.14 -0.14)">
       <defs>
        <path id="TimesNewRomanPS-ItalicMT-53" d="M 44 -97 
L 394 1475 
L 500 1475 
Q 478 1247 478 1097 
Q 478 669 751 400 
Q 1025 131 1466 131 
Q 1875 131 2087 382 
Q 2300 634 2300 963 
Q 2300 1175 2203 1350 
Q 2056 1609 1419 2263 
Q 1109 2575 1022 2728 
Q 878 2981 878 3259 
Q 878 3703 1209 4018 
Q 1541 4334 2059 4334 
Q 2234 4334 2391 4300 
Q 2488 4281 2744 4175 
Q 2925 4103 2944 4097 
Q 2988 4088 3041 4088 
Q 3131 4088 3197 4134 
Q 3263 4181 3350 4334 
L 3469 4334 
L 3144 2928 
L 3038 2928 
Q 3050 3116 3050 3231 
Q 3050 3609 2800 3850 
Q 2550 4091 2141 4091 
Q 1816 4091 1612 3900 
Q 1409 3709 1409 3459 
Q 1409 3241 1539 3042 
Q 1669 2844 2136 2395 
Q 2603 1947 2740 1695 
Q 2878 1444 2878 1159 
Q 2878 838 2708 536 
Q 2538 234 2219 68 
Q 1900 -97 1522 -97 
Q 1334 -97 1171 -62 
Q 1009 -28 653 106 
Q 531 153 450 153 
Q 266 153 163 -97 
L 44 -97 
z
" transform="scale(0.015625)"/>
       </defs>
       <use xlink:href="#TimesNewRomanPS-ItalicMT-53"/>
      </g>
     </g>
    </g>
    <g id="xtick_9">
     <g id="line2d_9">
      <g>
       <use xlink:href="#m4402cac4ec" x="477.188182" y="357.882484" style="stroke: #000000; stroke-width: 0.8"/>
      </g>
     </g>
     <g id="text_9">
      <!-- G -->
      <g transform="translate(474.491793 378.356646) rotate(-30) scale(0.14 -0.14)">
       <use xlink:href="#TimesNewRomanPS-ItalicMT-47"/>
      </g>
     </g>
    </g>
    <g id="xtick_10">
     <g id="line2d_10">
      <g>
       <use xlink:href="#m4402cac4ec" x="523.222273" y="357.882484" style="stroke: #000000; stroke-width: 0.8"/>
      </g>
     </g>
     <g id="text_10">
      <!-- Planarity -->
      <g transform="translate(501.998421 399.74274) rotate(-30) scale(0.14 -0.14)">
       <defs>
        <path id="TimesNewRomanPS-ItalicMT-50" d="M 1000 4238 
L 2669 4238 
Q 3325 4238 3650 3955 
Q 3975 3672 3975 3266 
Q 3975 2944 3769 2641 
Q 3563 2338 3156 2148 
Q 2750 1959 2278 1959 
Q 1984 1959 1531 2066 
L 1194 909 
Q 1075 497 1075 366 
Q 1075 266 1159 200 
Q 1244 134 1563 116 
L 1531 0 
L -153 0 
L -119 116 
Q 213 116 342 230 
Q 472 344 622 859 
L 1322 3272 
Q 1447 3706 1447 3853 
Q 1447 3963 1358 4034 
Q 1269 4106 966 4122 
L 1000 4238 
z
M 1584 2263 
Q 1938 2172 2153 2172 
Q 2494 2172 2773 2312 
Q 3053 2453 3211 2734 
Q 3369 3016 3369 3319 
Q 3369 3634 3175 3818 
Q 2981 4003 2588 4003 
Q 2375 4003 2072 3950 
L 1584 2263 
z
" transform="scale(0.015625)"/>
        <path id="TimesNewRomanPS-ItalicMT-6c" d="M 1903 4444 
L 834 725 
Q 756 447 756 384 
Q 756 338 786 306 
Q 816 275 859 275 
Q 919 275 988 328 
Q 1150 456 1328 725 
L 1422 628 
Q 1125 209 875 44 
Q 691 -75 525 -75 
Q 406 -75 326 6 
Q 247 88 247 194 
Q 247 306 347 656 
L 1194 3588 
Q 1297 3947 1297 4000 
Q 1297 4075 1237 4123 
Q 1178 4172 1053 4172 
Q 981 4172 834 4150 
L 834 4266 
L 1903 4444 
z
" transform="scale(0.015625)"/>
        <path id="TimesNewRomanPS-ItalicMT-61" d="M 3003 2828 
L 2394 709 
L 2325 425 
Q 2316 384 2316 356 
Q 2316 306 2347 269 
Q 2372 241 2409 241 
Q 2450 241 2516 291 
Q 2638 381 2841 666 
L 2947 591 
Q 2731 266 2503 95 
Q 2275 -75 2081 -75 
Q 1947 -75 1880 -8 
Q 1813 59 1813 188 
Q 1813 341 1881 591 
L 1947 825 
Q 1538 291 1194 78 
Q 947 -75 709 -75 
Q 481 -75 315 114 
Q 150 303 150 634 
Q 150 1131 448 1682 
Q 747 2234 1206 2566 
Q 1566 2828 1884 2828 
Q 2075 2828 2201 2728 
Q 2328 2628 2394 2397 
L 2506 2753 
L 3003 2828 
z
M 1891 2666 
Q 1691 2666 1466 2478 
Q 1147 2213 898 1691 
Q 650 1169 650 747 
Q 650 534 756 411 
Q 863 288 1000 288 
Q 1341 288 1741 791 
Q 2275 1459 2275 2163 
Q 2275 2428 2172 2547 
Q 2069 2666 1891 2666 
z
" transform="scale(0.015625)"/>
        <path id="TimesNewRomanPS-ItalicMT-6e" d="M 1413 2828 
L 997 1406 
Q 1581 2278 1892 2553 
Q 2203 2828 2491 2828 
Q 2647 2828 2748 2725 
Q 2850 2622 2850 2456 
Q 2850 2269 2759 1956 
L 2378 641 
Q 2313 413 2313 363 
Q 2313 319 2338 289 
Q 2363 259 2391 259 
Q 2428 259 2481 300 
Q 2647 431 2844 700 
L 2941 641 
Q 2650 225 2391 47 
Q 2209 -75 2066 -75 
Q 1950 -75 1881 -4 
Q 1813 66 1813 184 
Q 1813 334 1919 700 
L 2281 1956 
Q 2350 2191 2350 2322 
Q 2350 2384 2309 2423 
Q 2269 2463 2209 2463 
Q 2122 2463 2000 2388 
Q 1769 2247 1519 1923 
Q 1269 1600 991 1097 
Q 844 831 747 516 
L 591 0 
L 122 0 
L 691 1956 
Q 791 2309 791 2381 
Q 791 2450 736 2501 
Q 681 2553 600 2553 
Q 563 2553 469 2541 
L 350 2522 
L 331 2634 
L 1413 2828 
z
" transform="scale(0.015625)"/>
        <path id="TimesNewRomanPS-ItalicMT-69" d="M 1431 4069 
Q 1563 4069 1653 3978 
Q 1744 3888 1744 3756 
Q 1744 3628 1651 3536 
Q 1559 3444 1431 3444 
Q 1303 3444 1211 3536 
Q 1119 3628 1119 3756 
Q 1119 3888 1209 3978 
Q 1300 4069 1431 4069 
z
M 1472 2828 
L 853 638 
Q 791 416 791 372 
Q 791 322 820 290 
Q 850 259 891 259 
Q 938 259 1003 309 
Q 1181 450 1363 709 
L 1472 638 
Q 1259 313 972 91 
Q 759 -75 566 -75 
Q 438 -75 356 1 
Q 275 78 275 194 
Q 275 309 353 578 
L 759 1978 
Q 859 2322 859 2409 
Q 859 2478 811 2522 
Q 763 2566 678 2566 
Q 609 2566 394 2531 
L 394 2653 
L 1472 2828 
z
" transform="scale(0.015625)"/>
        <path id="TimesNewRomanPS-ItalicMT-74" d="M 1663 3603 
L 1419 2753 
L 1909 2753 
L 1856 2556 
L 1369 2556 
L 831 713 
Q 744 416 744 328 
Q 744 275 769 247 
Q 794 219 828 219 
Q 906 219 1034 328 
Q 1109 391 1369 713 
L 1472 634 
Q 1184 216 928 44 
Q 753 -75 575 -75 
Q 438 -75 350 11 
Q 263 97 263 231 
Q 263 400 363 747 
L 884 2556 
L 413 2556 
L 444 2678 
Q 788 2772 1016 2958 
Q 1244 3144 1525 3603 
L 1663 3603 
z
" transform="scale(0.015625)"/>
        <path id="TimesNewRomanPS-ItalicMT-79" d="M 1022 2828 
Q 1128 2647 1168 2489 
Q 1209 2331 1250 1869 
L 1388 331 
Q 1575 556 1931 1044 
Q 2103 1281 2356 1691 
Q 2509 1941 2544 2041 
Q 2563 2091 2563 2144 
Q 2563 2178 2541 2200 
Q 2519 2222 2426 2251 
Q 2334 2281 2273 2361 
Q 2213 2441 2213 2544 
Q 2213 2672 2288 2750 
Q 2363 2828 2475 2828 
Q 2613 2828 2709 2714 
Q 2806 2600 2806 2400 
Q 2806 2153 2637 1836 
Q 2469 1519 1987 862 
Q 1506 206 822 -569 
Q 350 -1103 122 -1242 
Q -106 -1381 -269 -1381 
Q -366 -1381 -439 -1307 
Q -513 -1234 -513 -1138 
Q -513 -1016 -411 -916 
Q -309 -816 -191 -816 
Q -128 -816 -88 -844 
Q -63 -859 -33 -932 
Q -3 -1006 22 -1031 
Q 38 -1047 59 -1047 
Q 78 -1047 125 -1016 
Q 297 -909 525 -678 
Q 825 -372 969 -178 
L 794 1803 
Q 750 2294 662 2400 
Q 575 2506 369 2506 
Q 303 2506 134 2488 
L 106 2603 
L 1022 2828 
z
" transform="scale(0.015625)"/>
       </defs>
       <use xlink:href="#TimesNewRomanPS-ItalicMT-50"/>
       <use xlink:href="#TimesNewRomanPS-ItalicMT-6c" x="61.083984"/>
       <use xlink:href="#TimesNewRomanPS-ItalicMT-61" x="88.867188"/>
       <use xlink:href="#TimesNewRomanPS-ItalicMT-6e" x="138.867188"/>
       <use xlink:href="#TimesNewRomanPS-ItalicMT-61" x="188.867188"/>
       <use xlink:href="#TimesNewRomanPS-ItalicMT-72" x="238.867188"/>
       <use xlink:href="#TimesNewRomanPS-ItalicMT-69" x="277.783203"/>
       <use xlink:href="#TimesNewRomanPS-ItalicMT-74" x="305.566406"/>
       <use xlink:href="#TimesNewRomanPS-ItalicMT-79" x="333.349609"/>
      </g>
     </g>
    </g>
    <g id="xtick_11">
     <g id="line2d_11">
      <g>
       <use xlink:href="#m4402cac4ec" x="569.256364" y="357.882484" style="stroke: #000000; stroke-width: 0.8"/>
      </g>
     </g>
     <g id="text_11">
      <!-- Scatter -->
      <g transform="translate(553.765938 393.129927) rotate(-30) scale(0.14 -0.14)">
       <defs>
        <path id="TimesNewRomanPS-ItalicMT-63" d="M 2472 681 
Q 2147 291 1815 108 
Q 1484 -75 1116 -75 
Q 672 -75 423 175 
Q 175 425 175 847 
Q 175 1325 442 1787 
Q 709 2250 1161 2539 
Q 1613 2828 2047 2828 
Q 2388 2828 2556 2686 
Q 2725 2544 2725 2338 
Q 2725 2144 2606 2006 
Q 2519 1900 2391 1900 
Q 2294 1900 2230 1962 
Q 2166 2025 2166 2119 
Q 2166 2178 2189 2228 
Q 2213 2278 2286 2348 
Q 2359 2419 2375 2450 
Q 2391 2481 2391 2516 
Q 2391 2581 2331 2625 
Q 2241 2688 2075 2688 
Q 1769 2688 1469 2472 
Q 1169 2256 956 1859 
Q 700 1378 700 897 
Q 700 578 881 392 
Q 1063 206 1375 206 
Q 1616 206 1852 326 
Q 2088 447 2381 763 
L 2472 681 
z
" transform="scale(0.015625)"/>
        <path id="TimesNewRomanPS-ItalicMT-65" d="M 763 1178 
Q 741 1022 741 919 
Q 741 641 937 445 
Q 1134 250 1416 250 
Q 1641 250 1848 342 
Q 2056 434 2466 750 
L 2531 659 
Q 1791 -75 1119 -75 
Q 663 -75 431 212 
Q 200 500 200 847 
Q 200 1313 487 1800 
Q 775 2288 1209 2558 
Q 1644 2828 2103 2828 
Q 2434 2828 2593 2693 
Q 2753 2559 2753 2375 
Q 2753 2116 2547 1878 
Q 2275 1569 1747 1378 
Q 1397 1250 763 1178 
z
M 784 1331 
Q 1247 1384 1538 1513 
Q 1922 1684 2114 1923 
Q 2306 2163 2306 2378 
Q 2306 2509 2223 2590 
Q 2141 2672 1988 2672 
Q 1669 2672 1311 2333 
Q 953 1994 784 1331 
z
" transform="scale(0.015625)"/>
       </defs>
       <use xlink:href="#TimesNewRomanPS-ItalicMT-53"/>
       <use xlink:href="#TimesNewRomanPS-ItalicMT-63" x="50"/>
       <use xlink:href="#TimesNewRomanPS-ItalicMT-61" x="94.384766"/>
       <use xlink:href="#TimesNewRomanPS-ItalicMT-74" x="144.384766"/>
       <use xlink:href="#TimesNewRomanPS-ItalicMT-74" x="172.167969"/>
       <use xlink:href="#TimesNewRomanPS-ItalicMT-65" x="199.951172"/>
       <use xlink:href="#TimesNewRomanPS-ItalicMT-72" x="244.335938"/>
      </g>
     </g>
    </g>
    <g id="xtick_12">
     <g id="line2d_12">
      <g>
       <use xlink:href="#m4402cac4ec" x="615.290455" y="357.882484" style="stroke: #000000; stroke-width: 0.8"/>
      </g>
     </g>
     <g id="text_12">
      <!-- R -->
      <g transform="translate(613.269431 377.576802) rotate(-30) scale(0.14 -0.14)">
       <defs>
        <path id="TimesNewRomanPS-ItalicMT-52" d="M 2659 0 
L 1981 2059 
Q 1744 2056 1494 2106 
L 1128 825 
Q 1056 575 1056 403 
Q 1056 272 1147 197 
Q 1216 141 1522 116 
L 1494 0 
L -147 0 
L -113 116 
Q 119 125 200 163 
Q 328 216 388 306 
Q 488 453 597 825 
L 1338 3384 
Q 1413 3641 1413 3781 
Q 1413 3925 1295 4025 
Q 1178 4125 959 4122 
L 997 4238 
L 2378 4238 
Q 3072 4238 3378 3975 
Q 3684 3713 3684 3284 
Q 3684 2875 3370 2536 
Q 3056 2197 2509 2106 
L 2922 866 
Q 3072 409 3222 271 
Q 3372 134 3706 116 
L 3672 0 
L 2659 0 
z
M 1547 2284 
Q 1747 2256 1903 2256 
Q 2441 2256 2753 2554 
Q 3066 2853 3066 3297 
Q 3066 3644 2870 3828 
Q 2675 4013 2284 4013 
Q 2184 4013 2047 3988 
L 1547 2284 
z
" transform="scale(0.015625)"/>
       </defs>
       <use xlink:href="#TimesNewRomanPS-ItalicMT-52"/>
      </g>
     </g>
    </g>
    <g id="xtick_13">
     <g id="line2d_13">
      <g>
       <use xlink:href="#m4402cac4ec" x="661.324545" y="357.882484" style="stroke: #000000; stroke-width: 0.8"/>
      </g>
     </g>
     <g id="text_13">
      <!-- Linearity -->
      <g transform="translate(640.765707 398.944538) rotate(-30) scale(0.14 -0.14)">
       <defs>
        <path id="TimesNewRomanPS-ItalicMT-4c" d="M 2934 0 
L -206 0 
L -163 116 
Q 88 122 172 156 
Q 303 213 366 303 
Q 463 447 572 822 
L 1319 3400 
Q 1413 3719 1413 3869 
Q 1413 3988 1327 4053 
Q 1241 4119 1003 4119 
Q 950 4119 919 4122 
L 956 4238 
L 2684 4238 
L 2659 4122 
Q 2369 4122 2247 4065 
Q 2125 4009 2044 3881 
Q 1988 3797 1859 3356 
L 1125 822 
Q 1041 534 1041 422 
Q 1041 347 1125 278 
Q 1178 231 1366 231 
L 1775 231 
Q 2222 231 2484 344 
Q 2678 428 2841 597 
Q 2928 691 3150 1063 
L 3231 1203 
L 3347 1203 
L 2934 0 
z
" transform="scale(0.015625)"/>
       </defs>
       <use xlink:href="#TimesNewRomanPS-ItalicMT-4c"/>
       <use xlink:href="#TimesNewRomanPS-ItalicMT-69" x="55.615234"/>
       <use xlink:href="#TimesNewRomanPS-ItalicMT-6e" x="83.398438"/>
       <use xlink:href="#TimesNewRomanPS-ItalicMT-65" x="133.398438"/>
       <use xlink:href="#TimesNewRomanPS-ItalicMT-61" x="177.783203"/>
       <use xlink:href="#TimesNewRomanPS-ItalicMT-72" x="227.783203"/>
       <use xlink:href="#TimesNewRomanPS-ItalicMT-69" x="266.699219"/>
       <use xlink:href="#TimesNewRomanPS-ItalicMT-74" x="294.482422"/>
       <use xlink:href="#TimesNewRomanPS-ItalicMT-79" x="322.265625"/>
      </g>
     </g>
    </g>
    <g id="text_14">
     <!-- Feature -->
     <g transform="translate(361.13125 417.468948) scale(0.16 -0.16)">
      <defs>
       <path id="TimesNewRomanPSMT-46" d="M 1309 4006 
L 1309 2341 
L 2081 2341 
Q 2347 2341 2470 2458 
Q 2594 2575 2634 2922 
L 2750 2922 
L 2750 1488 
L 2634 1488 
Q 2631 1734 2570 1850 
Q 2509 1966 2401 2023 
Q 2294 2081 2081 2081 
L 1309 2081 
L 1309 750 
Q 1309 428 1350 325 
Q 1381 247 1481 191 
Q 1619 116 1769 116 
L 1922 116 
L 1922 0 
L 103 0 
L 103 116 
L 253 116 
Q 516 116 634 269 
Q 709 369 709 750 
L 709 3488 
Q 709 3809 669 3913 
Q 638 3991 541 4047 
Q 406 4122 253 4122 
L 103 4122 
L 103 4238 
L 3256 4238 
L 3297 3306 
L 3188 3306 
Q 3106 3603 2998 3742 
Q 2891 3881 2733 3943 
Q 2575 4006 2244 4006 
L 1309 4006 
z
" transform="scale(0.015625)"/>
       <path id="TimesNewRomanPSMT-65" d="M 681 1784 
Q 678 1147 991 784 
Q 1303 422 1725 422 
Q 2006 422 2214 576 
Q 2422 731 2563 1106 
L 2659 1044 
Q 2594 616 2278 264 
Q 1963 -88 1488 -88 
Q 972 -88 605 314 
Q 238 716 238 1394 
Q 238 2128 614 2539 
Q 991 2950 1559 2950 
Q 2041 2950 2350 2633 
Q 2659 2316 2659 1784 
L 681 1784 
z
M 681 1966 
L 2006 1966 
Q 1991 2241 1941 2353 
Q 1863 2528 1708 2628 
Q 1553 2728 1384 2728 
Q 1125 2728 920 2526 
Q 716 2325 681 1966 
z
" transform="scale(0.015625)"/>
       <path id="TimesNewRomanPSMT-61" d="M 1822 413 
Q 1381 72 1269 19 
Q 1100 -59 909 -59 
Q 613 -59 420 144 
Q 228 347 228 678 
Q 228 888 322 1041 
Q 450 1253 767 1440 
Q 1084 1628 1822 1897 
L 1822 2009 
Q 1822 2438 1686 2597 
Q 1550 2756 1291 2756 
Q 1094 2756 978 2650 
Q 859 2544 859 2406 
L 866 2225 
Q 866 2081 792 2003 
Q 719 1925 600 1925 
Q 484 1925 411 2006 
Q 338 2088 338 2228 
Q 338 2497 613 2722 
Q 888 2947 1384 2947 
Q 1766 2947 2009 2819 
Q 2194 2722 2281 2516 
Q 2338 2381 2338 1966 
L 2338 994 
Q 2338 584 2353 492 
Q 2369 400 2405 369 
Q 2441 338 2488 338 
Q 2538 338 2575 359 
Q 2641 400 2828 588 
L 2828 413 
Q 2478 -56 2159 -56 
Q 2006 -56 1915 50 
Q 1825 156 1822 413 
z
M 1822 616 
L 1822 1706 
Q 1350 1519 1213 1441 
Q 966 1303 859 1153 
Q 753 1003 753 825 
Q 753 600 887 451 
Q 1022 303 1197 303 
Q 1434 303 1822 616 
z
" transform="scale(0.015625)"/>
       <path id="TimesNewRomanPSMT-74" d="M 1031 3803 
L 1031 2863 
L 1700 2863 
L 1700 2644 
L 1031 2644 
L 1031 788 
Q 1031 509 1111 412 
Q 1191 316 1316 316 
Q 1419 316 1516 380 
Q 1613 444 1666 569 
L 1788 569 
Q 1678 263 1478 108 
Q 1278 -47 1066 -47 
Q 922 -47 784 33 
Q 647 113 581 261 
Q 516 409 516 719 
L 516 2644 
L 63 2644 
L 63 2747 
Q 234 2816 414 2980 
Q 594 3144 734 3369 
Q 806 3488 934 3803 
L 1031 3803 
z
" transform="scale(0.015625)"/>
       <path id="TimesNewRomanPSMT-75" d="M 2709 2863 
L 2709 1128 
Q 2709 631 2732 520 
Q 2756 409 2807 365 
Q 2859 322 2928 322 
Q 3025 322 3147 375 
L 3191 266 
L 2334 -88 
L 2194 -88 
L 2194 519 
Q 1825 119 1631 15 
Q 1438 -88 1222 -88 
Q 981 -88 804 51 
Q 628 191 559 409 
Q 491 628 491 1028 
L 491 2306 
Q 491 2509 447 2587 
Q 403 2666 317 2708 
Q 231 2750 6 2747 
L 6 2863 
L 1009 2863 
L 1009 947 
Q 1009 547 1148 422 
Q 1288 297 1484 297 
Q 1619 297 1789 381 
Q 1959 466 2194 703 
L 2194 2325 
Q 2194 2569 2105 2655 
Q 2016 2741 1734 2747 
L 1734 2863 
L 2709 2863 
z
" transform="scale(0.015625)"/>
       <path id="TimesNewRomanPSMT-72" d="M 1038 2947 
L 1038 2303 
Q 1397 2947 1775 2947 
Q 1947 2947 2059 2842 
Q 2172 2738 2172 2600 
Q 2172 2478 2090 2393 
Q 2009 2309 1897 2309 
Q 1788 2309 1652 2417 
Q 1516 2525 1450 2525 
Q 1394 2525 1328 2463 
Q 1188 2334 1038 2041 
L 1038 669 
Q 1038 431 1097 309 
Q 1138 225 1241 169 
Q 1344 113 1538 113 
L 1538 0 
L 72 0 
L 72 113 
Q 291 113 397 181 
Q 475 231 506 341 
Q 522 394 522 644 
L 522 1753 
Q 522 2253 501 2348 
Q 481 2444 426 2487 
Q 372 2531 291 2531 
Q 194 2531 72 2484 
L 41 2597 
L 906 2947 
L 1038 2947 
z
" transform="scale(0.015625)"/>
      </defs>
      <use xlink:href="#TimesNewRomanPSMT-46"/>
      <use xlink:href="#TimesNewRomanPSMT-65" x="55.615234"/>
      <use xlink:href="#TimesNewRomanPSMT-61" x="100"/>
      <use xlink:href="#TimesNewRomanPSMT-74" x="144.384766"/>
      <use xlink:href="#TimesNewRomanPSMT-75" x="172.167969"/>
      <use xlink:href="#TimesNewRomanPSMT-72" x="222.167969"/>
      <use xlink:href="#TimesNewRomanPSMT-65" x="255.46875"/>
     </g>
    </g>
   </g>
   <g id="matplotlib.axis_2">
    <g id="ytick_1">
     <g id="line2d_14">
      <defs>
       <path id="md0e8839701" d="M 0 0 
L -3.5 0 
" style="stroke: #000000; stroke-width: 0.8"/>
      </defs>
      <g>
       <use xlink:href="#md0e8839701" x="61.04" y="357.882484" style="stroke: #000000; stroke-width: 0.8"/>
      </g>
     </g>
     <g id="text_15">
      <!-- 0.00 -->
      <g transform="translate(29.54 362.743109) scale(0.14 -0.14)">
       <defs>
        <path id="TimesNewRomanPSMT-30" d="M 231 2094 
Q 231 2819 450 3342 
Q 669 3866 1031 4122 
Q 1313 4325 1613 4325 
Q 2100 4325 2488 3828 
Q 2972 3213 2972 2159 
Q 2972 1422 2759 906 
Q 2547 391 2217 158 
Q 1888 -75 1581 -75 
Q 975 -75 572 641 
Q 231 1244 231 2094 
z
M 844 2016 
Q 844 1141 1059 588 
Q 1238 122 1591 122 
Q 1759 122 1940 273 
Q 2122 425 2216 781 
Q 2359 1319 2359 2297 
Q 2359 3022 2209 3506 
Q 2097 3866 1919 4016 
Q 1791 4119 1609 4119 
Q 1397 4119 1231 3928 
Q 1006 3669 925 3112 
Q 844 2556 844 2016 
z
" transform="scale(0.015625)"/>
        <path id="TimesNewRomanPSMT-2e" d="M 800 606 
Q 947 606 1047 504 
Q 1147 403 1147 259 
Q 1147 116 1045 14 
Q 944 -88 800 -88 
Q 656 -88 554 14 
Q 453 116 453 259 
Q 453 406 554 506 
Q 656 606 800 606 
z
" transform="scale(0.015625)"/>
       </defs>
       <use xlink:href="#TimesNewRomanPSMT-30"/>
       <use xlink:href="#TimesNewRomanPSMT-2e" x="50"/>
       <use xlink:href="#TimesNewRomanPSMT-30" x="75"/>
       <use xlink:href="#TimesNewRomanPSMT-30" x="125"/>
      </g>
     </g>
    </g>
    <g id="ytick_2">
     <g id="line2d_15">
      <g>
       <use xlink:href="#md0e8839701" x="61.04" y="293.487035" style="stroke: #000000; stroke-width: 0.8"/>
      </g>
     </g>
     <g id="text_16">
      <!-- 0.05 -->
      <g transform="translate(29.54 298.34766) scale(0.14 -0.14)">
       <defs>
        <path id="TimesNewRomanPSMT-35" d="M 2778 4238 
L 2534 3706 
L 1259 3706 
L 981 3138 
Q 1809 3016 2294 2522 
Q 2709 2097 2709 1522 
Q 2709 1188 2573 903 
Q 2438 619 2231 419 
Q 2025 219 1772 97 
Q 1413 -75 1034 -75 
Q 653 -75 479 54 
Q 306 184 306 341 
Q 306 428 378 495 
Q 450 563 559 563 
Q 641 563 702 538 
Q 763 513 909 409 
Q 1144 247 1384 247 
Q 1750 247 2026 523 
Q 2303 800 2303 1197 
Q 2303 1581 2056 1914 
Q 1809 2247 1375 2428 
Q 1034 2569 447 2591 
L 1259 4238 
L 2778 4238 
z
" transform="scale(0.015625)"/>
       </defs>
       <use xlink:href="#TimesNewRomanPSMT-30"/>
       <use xlink:href="#TimesNewRomanPSMT-2e" x="50"/>
       <use xlink:href="#TimesNewRomanPSMT-30" x="75"/>
       <use xlink:href="#TimesNewRomanPSMT-35" x="125"/>
      </g>
     </g>
    </g>
    <g id="ytick_3">
     <g id="line2d_16">
      <g>
       <use xlink:href="#md0e8839701" x="61.04" y="229.091586" style="stroke: #000000; stroke-width: 0.8"/>
      </g>
     </g>
     <g id="text_17">
      <!-- 0.10 -->
      <g transform="translate(29.54 233.952211) scale(0.14 -0.14)">
       <defs>
        <path id="TimesNewRomanPSMT-31" d="M 750 3822 
L 1781 4325 
L 1884 4325 
L 1884 747 
Q 1884 391 1914 303 
Q 1944 216 2037 169 
Q 2131 122 2419 116 
L 2419 0 
L 825 0 
L 825 116 
Q 1125 122 1212 167 
Q 1300 213 1334 289 
Q 1369 366 1369 747 
L 1369 3034 
Q 1369 3497 1338 3628 
Q 1316 3728 1258 3775 
Q 1200 3822 1119 3822 
Q 1003 3822 797 3725 
L 750 3822 
z
" transform="scale(0.015625)"/>
       </defs>
       <use xlink:href="#TimesNewRomanPSMT-30"/>
       <use xlink:href="#TimesNewRomanPSMT-2e" x="50"/>
       <use xlink:href="#TimesNewRomanPSMT-31" x="75"/>
       <use xlink:href="#TimesNewRomanPSMT-30" x="125"/>
      </g>
     </g>
    </g>
    <g id="ytick_4">
     <g id="line2d_17">
      <g>
       <use xlink:href="#md0e8839701" x="61.04" y="164.696137" style="stroke: #000000; stroke-width: 0.8"/>
      </g>
     </g>
     <g id="text_18">
      <!-- 0.15 -->
      <g transform="translate(29.54 169.556762) scale(0.14 -0.14)">
       <use xlink:href="#TimesNewRomanPSMT-30"/>
       <use xlink:href="#TimesNewRomanPSMT-2e" x="50"/>
       <use xlink:href="#TimesNewRomanPSMT-31" x="75"/>
       <use xlink:href="#TimesNewRomanPSMT-35" x="125"/>
      </g>
     </g>
    </g>
    <g id="ytick_5">
     <g id="line2d_18">
      <g>
       <use xlink:href="#md0e8839701" x="61.04" y="100.300688" style="stroke: #000000; stroke-width: 0.8"/>
      </g>
     </g>
     <g id="text_19">
      <!-- 0.20 -->
      <g transform="translate(29.54 105.161313) scale(0.14 -0.14)">
       <defs>
        <path id="TimesNewRomanPSMT-32" d="M 2934 816 
L 2638 0 
L 138 0 
L 138 116 
Q 1241 1122 1691 1759 
Q 2141 2397 2141 2925 
Q 2141 3328 1894 3587 
Q 1647 3847 1303 3847 
Q 991 3847 742 3664 
Q 494 3481 375 3128 
L 259 3128 
Q 338 3706 661 4015 
Q 984 4325 1469 4325 
Q 1984 4325 2329 3994 
Q 2675 3663 2675 3213 
Q 2675 2891 2525 2569 
Q 2294 2063 1775 1497 
Q 997 647 803 472 
L 1909 472 
Q 2247 472 2383 497 
Q 2519 522 2628 598 
Q 2738 675 2819 816 
L 2934 816 
z
" transform="scale(0.015625)"/>
       </defs>
       <use xlink:href="#TimesNewRomanPSMT-30"/>
       <use xlink:href="#TimesNewRomanPSMT-2e" x="50"/>
       <use xlink:href="#TimesNewRomanPSMT-32" x="75"/>
       <use xlink:href="#TimesNewRomanPSMT-30" x="125"/>
      </g>
     </g>
    </g>
    <g id="ytick_6">
     <g id="line2d_19">
      <g>
       <use xlink:href="#md0e8839701" x="61.04" y="35.905239" style="stroke: #000000; stroke-width: 0.8"/>
      </g>
     </g>
     <g id="text_20">
      <!-- 0.25 -->
      <g transform="translate(29.54 40.765864) scale(0.14 -0.14)">
       <use xlink:href="#TimesNewRomanPSMT-30"/>
       <use xlink:href="#TimesNewRomanPSMT-2e" x="50"/>
       <use xlink:href="#TimesNewRomanPSMT-32" x="75"/>
       <use xlink:href="#TimesNewRomanPSMT-35" x="125"/>
      </g>
     </g>
    </g>
    <g id="text_21">
     <!-- Importance -->
     <g transform="translate(22.1175 230.247492) rotate(-90) scale(0.16 -0.16)">
      <defs>
       <path id="TimesNewRomanPSMT-49" d="M 1975 116 
L 1975 0 
L 159 0 
L 159 116 
L 309 116 
Q 572 116 691 269 
Q 766 369 766 750 
L 766 3488 
Q 766 3809 725 3913 
Q 694 3991 597 4047 
Q 459 4122 309 4122 
L 159 4122 
L 159 4238 
L 1975 4238 
L 1975 4122 
L 1822 4122 
Q 1563 4122 1444 3969 
Q 1366 3869 1366 3488 
L 1366 750 
Q 1366 428 1406 325 
Q 1438 247 1538 191 
Q 1672 116 1822 116 
L 1975 116 
z
" transform="scale(0.015625)"/>
       <path id="TimesNewRomanPSMT-6d" d="M 1050 2338 
Q 1363 2650 1419 2697 
Q 1559 2816 1721 2881 
Q 1884 2947 2044 2947 
Q 2313 2947 2506 2790 
Q 2700 2634 2766 2338 
Q 3088 2713 3309 2830 
Q 3531 2947 3766 2947 
Q 3994 2947 4170 2830 
Q 4347 2713 4450 2447 
Q 4519 2266 4519 1878 
L 4519 647 
Q 4519 378 4559 278 
Q 4591 209 4675 161 
Q 4759 113 4950 113 
L 4950 0 
L 3538 0 
L 3538 113 
L 3597 113 
Q 3781 113 3884 184 
Q 3956 234 3988 344 
Q 4000 397 4000 647 
L 4000 1878 
Q 4000 2228 3916 2372 
Q 3794 2572 3525 2572 
Q 3359 2572 3192 2489 
Q 3025 2406 2788 2181 
L 2781 2147 
L 2788 2013 
L 2788 647 
Q 2788 353 2820 281 
Q 2853 209 2943 161 
Q 3034 113 3253 113 
L 3253 0 
L 1806 0 
L 1806 113 
Q 2044 113 2133 169 
Q 2222 225 2256 338 
Q 2272 391 2272 647 
L 2272 1878 
Q 2272 2228 2169 2381 
Q 2031 2581 1784 2581 
Q 1616 2581 1450 2491 
Q 1191 2353 1050 2181 
L 1050 647 
Q 1050 366 1089 281 
Q 1128 197 1204 155 
Q 1281 113 1516 113 
L 1516 0 
L 100 0 
L 100 113 
Q 297 113 375 155 
Q 453 197 493 289 
Q 534 381 534 647 
L 534 1741 
Q 534 2213 506 2350 
Q 484 2453 437 2492 
Q 391 2531 309 2531 
Q 222 2531 100 2484 
L 53 2597 
L 916 2947 
L 1050 2947 
L 1050 2338 
z
" transform="scale(0.015625)"/>
       <path id="TimesNewRomanPSMT-70" d="M -6 2578 
L 875 2934 
L 994 2934 
L 994 2266 
Q 1216 2644 1439 2795 
Q 1663 2947 1909 2947 
Q 2341 2947 2628 2609 
Q 2981 2197 2981 1534 
Q 2981 794 2556 309 
Q 2206 -88 1675 -88 
Q 1444 -88 1275 -22 
Q 1150 25 994 166 
L 994 -706 
Q 994 -1000 1030 -1079 
Q 1066 -1159 1155 -1206 
Q 1244 -1253 1478 -1253 
L 1478 -1369 
L -22 -1369 
L -22 -1253 
L 56 -1253 
Q 228 -1256 350 -1188 
Q 409 -1153 442 -1076 
Q 475 -1000 475 -688 
L 475 2019 
Q 475 2297 450 2372 
Q 425 2447 370 2484 
Q 316 2522 222 2522 
Q 147 2522 31 2478 
L -6 2578 
z
M 994 2081 
L 994 1013 
Q 994 666 1022 556 
Q 1066 375 1236 237 
Q 1406 100 1666 100 
Q 1978 100 2172 344 
Q 2425 663 2425 1241 
Q 2425 1897 2138 2250 
Q 1938 2494 1663 2494 
Q 1513 2494 1366 2419 
Q 1253 2363 994 2081 
z
" transform="scale(0.015625)"/>
       <path id="TimesNewRomanPSMT-6f" d="M 1600 2947 
Q 2250 2947 2644 2453 
Q 2978 2031 2978 1484 
Q 2978 1100 2793 706 
Q 2609 313 2286 112 
Q 1963 -88 1566 -88 
Q 919 -88 538 428 
Q 216 863 216 1403 
Q 216 1797 411 2186 
Q 606 2575 925 2761 
Q 1244 2947 1600 2947 
z
M 1503 2744 
Q 1338 2744 1170 2645 
Q 1003 2547 900 2300 
Q 797 2053 797 1666 
Q 797 1041 1045 587 
Q 1294 134 1700 134 
Q 2003 134 2200 384 
Q 2397 634 2397 1244 
Q 2397 2006 2069 2444 
Q 1847 2744 1503 2744 
z
" transform="scale(0.015625)"/>
       <path id="TimesNewRomanPSMT-6e" d="M 1034 2341 
Q 1538 2947 1994 2947 
Q 2228 2947 2397 2830 
Q 2566 2713 2666 2444 
Q 2734 2256 2734 1869 
L 2734 647 
Q 2734 375 2778 278 
Q 2813 200 2889 156 
Q 2966 113 3172 113 
L 3172 0 
L 1756 0 
L 1756 113 
L 1816 113 
Q 2016 113 2095 173 
Q 2175 234 2206 353 
Q 2219 400 2219 647 
L 2219 1819 
Q 2219 2209 2117 2386 
Q 2016 2563 1775 2563 
Q 1403 2563 1034 2156 
L 1034 647 
Q 1034 356 1069 288 
Q 1113 197 1189 155 
Q 1266 113 1500 113 
L 1500 0 
L 84 0 
L 84 113 
L 147 113 
Q 366 113 442 223 
Q 519 334 519 647 
L 519 1709 
Q 519 2225 495 2337 
Q 472 2450 423 2490 
Q 375 2531 294 2531 
Q 206 2531 84 2484 
L 38 2597 
L 900 2947 
L 1034 2947 
L 1034 2341 
z
" transform="scale(0.015625)"/>
       <path id="TimesNewRomanPSMT-63" d="M 2631 1088 
Q 2516 522 2178 217 
Q 1841 -88 1431 -88 
Q 944 -88 581 321 
Q 219 731 219 1428 
Q 219 2103 620 2525 
Q 1022 2947 1584 2947 
Q 2006 2947 2278 2723 
Q 2550 2500 2550 2259 
Q 2550 2141 2473 2067 
Q 2397 1994 2259 1994 
Q 2075 1994 1981 2113 
Q 1928 2178 1911 2362 
Q 1894 2547 1784 2644 
Q 1675 2738 1481 2738 
Q 1169 2738 978 2506 
Q 725 2200 725 1697 
Q 725 1184 976 792 
Q 1228 400 1656 400 
Q 1963 400 2206 609 
Q 2378 753 2541 1131 
L 2631 1088 
z
" transform="scale(0.015625)"/>
      </defs>
      <use xlink:href="#TimesNewRomanPSMT-49"/>
      <use xlink:href="#TimesNewRomanPSMT-6d" x="33.300781"/>
      <use xlink:href="#TimesNewRomanPSMT-70" x="111.083984"/>
      <use xlink:href="#TimesNewRomanPSMT-6f" x="161.083984"/>
      <use xlink:href="#TimesNewRomanPSMT-72" x="211.083984"/>
      <use xlink:href="#TimesNewRomanPSMT-74" x="244.384766"/>
      <use xlink:href="#TimesNewRomanPSMT-61" x="272.167969"/>
      <use xlink:href="#TimesNewRomanPSMT-6e" x="316.552734"/>
      <use xlink:href="#TimesNewRomanPSMT-63" x="366.552734"/>
      <use xlink:href="#TimesNewRomanPSMT-65" x="410.9375"/>
     </g>
    </g>
   </g>
   <g id="patch_16">
    <path d="M 61.04 357.882484 
L 61.04 29.76 
" style="fill: none; stroke: #000000; stroke-width: 0.8; stroke-linejoin: miter; stroke-linecap: square"/>
   </g>
   <g id="patch_17">
    <path d="M 709.2 357.882484 
L 709.2 29.76 
" style="fill: none; stroke: #000000; stroke-width: 0.8; stroke-linejoin: miter; stroke-linecap: square"/>
   </g>
   <g id="patch_18">
    <path d="M 61.04 357.882484 
L 709.2 357.882484 
" style="fill: none; stroke: #000000; stroke-width: 0.8; stroke-linejoin: miter; stroke-linecap: square"/>
   </g>
   <g id="patch_19">
    <path d="M 61.04 29.76 
L 709.2 29.76 
" style="fill: none; stroke: #000000; stroke-width: 0.8; stroke-linejoin: miter; stroke-linecap: square"/>
   </g>
   <g id="text_22">
    <!-- 0.243 -->
    <g transform="translate(95.415455 41.530096) scale(0.12 -0.12)">
     <defs>
      <path id="TimesNewRomanPSMT-34" d="M 2978 1563 
L 2978 1119 
L 2409 1119 
L 2409 0 
L 1894 0 
L 1894 1119 
L 100 1119 
L 100 1519 
L 2066 4325 
L 2409 4325 
L 2409 1563 
L 2978 1563 
z
M 1894 1563 
L 1894 3666 
L 406 1563 
L 1894 1563 
z
" transform="scale(0.015625)"/>
      <path id="TimesNewRomanPSMT-33" d="M 325 3431 
Q 506 3859 782 4092 
Q 1059 4325 1472 4325 
Q 1981 4325 2253 3994 
Q 2459 3747 2459 3466 
Q 2459 3003 1878 2509 
Q 2269 2356 2469 2072 
Q 2669 1788 2669 1403 
Q 2669 853 2319 450 
Q 1863 -75 997 -75 
Q 569 -75 414 31 
Q 259 138 259 259 
Q 259 350 332 419 
Q 406 488 509 488 
Q 588 488 669 463 
Q 722 447 909 348 
Q 1097 250 1169 231 
Q 1284 197 1416 197 
Q 1734 197 1970 444 
Q 2206 691 2206 1028 
Q 2206 1275 2097 1509 
Q 2016 1684 1919 1775 
Q 1784 1900 1550 2001 
Q 1316 2103 1072 2103 
L 972 2103 
L 972 2197 
Q 1219 2228 1467 2375 
Q 1716 2522 1828 2728 
Q 1941 2934 1941 3181 
Q 1941 3503 1739 3701 
Q 1538 3900 1238 3900 
Q 753 3900 428 3381 
L 325 3431 
z
" transform="scale(0.015625)"/>
     </defs>
     <use xlink:href="#TimesNewRomanPSMT-30"/>
     <use xlink:href="#TimesNewRomanPSMT-2e" x="50"/>
     <use xlink:href="#TimesNewRomanPSMT-32" x="75"/>
     <use xlink:href="#TimesNewRomanPSMT-34" x="125"/>
     <use xlink:href="#TimesNewRomanPSMT-33" x="175"/>
    </g>
   </g>
   <g id="text_23">
    <!-- 0.148 -->
    <g transform="translate(141.449545 163.579984) scale(0.12 -0.12)">
     <defs>
      <path id="TimesNewRomanPSMT-38" d="M 1228 2134 
Q 725 2547 579 2797 
Q 434 3047 434 3316 
Q 434 3728 753 4026 
Q 1072 4325 1600 4325 
Q 2113 4325 2425 4047 
Q 2738 3769 2738 3413 
Q 2738 3175 2569 2928 
Q 2400 2681 1866 2347 
Q 2416 1922 2594 1678 
Q 2831 1359 2831 1006 
Q 2831 559 2490 242 
Q 2150 -75 1597 -75 
Q 994 -75 656 303 
Q 388 606 388 966 
Q 388 1247 577 1523 
Q 766 1800 1228 2134 
z
M 1719 2469 
Q 2094 2806 2194 3001 
Q 2294 3197 2294 3444 
Q 2294 3772 2109 3958 
Q 1925 4144 1606 4144 
Q 1288 4144 1088 3959 
Q 888 3775 888 3528 
Q 888 3366 970 3203 
Q 1053 3041 1206 2894 
L 1719 2469 
z
M 1375 2016 
Q 1116 1797 991 1539 
Q 866 1281 866 981 
Q 866 578 1086 336 
Q 1306 94 1647 94 
Q 1984 94 2187 284 
Q 2391 475 2391 747 
Q 2391 972 2272 1150 
Q 2050 1481 1375 2016 
z
" transform="scale(0.015625)"/>
     </defs>
     <use xlink:href="#TimesNewRomanPSMT-30"/>
     <use xlink:href="#TimesNewRomanPSMT-2e" x="50"/>
     <use xlink:href="#TimesNewRomanPSMT-31" x="75"/>
     <use xlink:href="#TimesNewRomanPSMT-34" x="125"/>
     <use xlink:href="#TimesNewRomanPSMT-38" x="175"/>
    </g>
   </g>
   <g id="text_24">
    <!-- 0.106 -->
    <g transform="translate(187.483636 216.955099) scale(0.12 -0.12)">
     <defs>
      <path id="TimesNewRomanPSMT-36" d="M 2869 4325 
L 2869 4209 
Q 2456 4169 2195 4045 
Q 1934 3922 1679 3669 
Q 1425 3416 1258 3105 
Q 1091 2794 978 2366 
Q 1428 2675 1881 2675 
Q 2316 2675 2634 2325 
Q 2953 1975 2953 1425 
Q 2953 894 2631 456 
Q 2244 -75 1606 -75 
Q 1172 -75 869 213 
Q 275 772 275 1663 
Q 275 2231 503 2743 
Q 731 3256 1154 3653 
Q 1578 4050 1965 4187 
Q 2353 4325 2688 4325 
L 2869 4325 
z
M 925 2138 
Q 869 1716 869 1456 
Q 869 1156 980 804 
Q 1091 453 1309 247 
Q 1469 100 1697 100 
Q 1969 100 2183 356 
Q 2397 613 2397 1088 
Q 2397 1622 2184 2012 
Q 1972 2403 1581 2403 
Q 1463 2403 1327 2353 
Q 1191 2303 925 2138 
z
" transform="scale(0.015625)"/>
     </defs>
     <use xlink:href="#TimesNewRomanPSMT-30"/>
     <use xlink:href="#TimesNewRomanPSMT-2e" x="50"/>
     <use xlink:href="#TimesNewRomanPSMT-31" x="75"/>
     <use xlink:href="#TimesNewRomanPSMT-30" x="125"/>
     <use xlink:href="#TimesNewRomanPSMT-36" x="175"/>
    </g>
   </g>
   <g id="text_25">
    <!-- 0.091 -->
    <g transform="translate(233.517727 236.234885) scale(0.12 -0.12)">
     <defs>
      <path id="TimesNewRomanPSMT-39" d="M 338 -88 
L 338 28 
Q 744 34 1094 217 
Q 1444 400 1770 856 
Q 2097 1313 2225 1859 
Q 1734 1544 1338 1544 
Q 891 1544 572 1889 
Q 253 2234 253 2806 
Q 253 3363 572 3797 
Q 956 4325 1575 4325 
Q 2097 4325 2469 3894 
Q 2925 3359 2925 2575 
Q 2925 1869 2578 1258 
Q 2231 647 1613 244 
Q 1109 -88 516 -88 
L 338 -88 
z
M 2275 2091 
Q 2331 2497 2331 2741 
Q 2331 3044 2228 3395 
Q 2125 3747 1936 3934 
Q 1747 4122 1506 4122 
Q 1228 4122 1018 3872 
Q 809 3622 809 3128 
Q 809 2469 1088 2097 
Q 1291 1828 1588 1828 
Q 1731 1828 1928 1897 
Q 2125 1966 2275 2091 
z
" transform="scale(0.015625)"/>
     </defs>
     <use xlink:href="#TimesNewRomanPSMT-30"/>
     <use xlink:href="#TimesNewRomanPSMT-2e" x="50"/>
     <use xlink:href="#TimesNewRomanPSMT-30" x="75"/>
     <use xlink:href="#TimesNewRomanPSMT-39" x="125"/>
     <use xlink:href="#TimesNewRomanPSMT-31" x="175"/>
    </g>
   </g>
   <g id="text_26">
    <!-- 0.073 -->
    <g transform="translate(279.551818 260.067304) scale(0.12 -0.12)">
     <defs>
      <path id="TimesNewRomanPSMT-37" d="M 644 4238 
L 2916 4238 
L 2916 4119 
L 1503 -88 
L 1153 -88 
L 2419 3728 
L 1253 3728 
Q 900 3728 750 3644 
Q 488 3500 328 3200 
L 238 3234 
L 644 4238 
z
" transform="scale(0.015625)"/>
     </defs>
     <use xlink:href="#TimesNewRomanPSMT-30"/>
     <use xlink:href="#TimesNewRomanPSMT-2e" x="50"/>
     <use xlink:href="#TimesNewRomanPSMT-30" x="75"/>
     <use xlink:href="#TimesNewRomanPSMT-37" x="125"/>
     <use xlink:href="#TimesNewRomanPSMT-33" x="175"/>
    </g>
   </g>
   <g id="text_27">
    <!-- 0.062 -->
    <g transform="translate(325.585909 274.016446) scale(0.12 -0.12)">
     <use xlink:href="#TimesNewRomanPSMT-30"/>
     <use xlink:href="#TimesNewRomanPSMT-2e" x="50"/>
     <use xlink:href="#TimesNewRomanPSMT-30" x="75"/>
     <use xlink:href="#TimesNewRomanPSMT-36" x="125"/>
     <use xlink:href="#TimesNewRomanPSMT-32" x="175"/>
    </g>
   </g>
   <g id="text_28">
    <!-- 0.057 -->
    <g transform="translate(371.62 281.245316) scale(0.12 -0.12)">
     <use xlink:href="#TimesNewRomanPSMT-30"/>
     <use xlink:href="#TimesNewRomanPSMT-2e" x="50"/>
     <use xlink:href="#TimesNewRomanPSMT-30" x="75"/>
     <use xlink:href="#TimesNewRomanPSMT-35" x="125"/>
     <use xlink:href="#TimesNewRomanPSMT-37" x="175"/>
    </g>
   </g>
   <g id="text_29">
    <!-- 0.045 -->
    <g transform="translate(417.654091 296.430289) scale(0.12 -0.12)">
     <use xlink:href="#TimesNewRomanPSMT-30"/>
     <use xlink:href="#TimesNewRomanPSMT-2e" x="50"/>
     <use xlink:href="#TimesNewRomanPSMT-30" x="75"/>
     <use xlink:href="#TimesNewRomanPSMT-34" x="125"/>
     <use xlink:href="#TimesNewRomanPSMT-35" x="175"/>
    </g>
   </g>
   <g id="text_30">
    <!-- 0.044 -->
    <g transform="translate(463.688182 297.20437) scale(0.12 -0.12)">
     <use xlink:href="#TimesNewRomanPSMT-30"/>
     <use xlink:href="#TimesNewRomanPSMT-2e" x="50"/>
     <use xlink:href="#TimesNewRomanPSMT-30" x="75"/>
     <use xlink:href="#TimesNewRomanPSMT-34" x="125"/>
     <use xlink:href="#TimesNewRomanPSMT-34" x="175"/>
    </g>
   </g>
   <g id="text_31">
    <!-- 0.040 -->
    <g transform="translate(509.722273 302.600038) scale(0.12 -0.12)">
     <use xlink:href="#TimesNewRomanPSMT-30"/>
     <use xlink:href="#TimesNewRomanPSMT-2e" x="50"/>
     <use xlink:href="#TimesNewRomanPSMT-30" x="75"/>
     <use xlink:href="#TimesNewRomanPSMT-34" x="125"/>
     <use xlink:href="#TimesNewRomanPSMT-30" x="175"/>
    </g>
   </g>
   <g id="text_32">
    <!-- 0.037 -->
    <g transform="translate(555.756364 306.684165) scale(0.12 -0.12)">
     <use xlink:href="#TimesNewRomanPSMT-30"/>
     <use xlink:href="#TimesNewRomanPSMT-2e" x="50"/>
     <use xlink:href="#TimesNewRomanPSMT-30" x="75"/>
     <use xlink:href="#TimesNewRomanPSMT-33" x="125"/>
     <use xlink:href="#TimesNewRomanPSMT-37" x="175"/>
    </g>
   </g>
   <g id="text_33">
    <!-- 0.036 -->
    <g transform="translate(601.790455 307.759477) scale(0.12 -0.12)">
     <use xlink:href="#TimesNewRomanPSMT-30"/>
     <use xlink:href="#TimesNewRomanPSMT-2e" x="50"/>
     <use xlink:href="#TimesNewRomanPSMT-30" x="75"/>
     <use xlink:href="#TimesNewRomanPSMT-33" x="125"/>
     <use xlink:href="#TimesNewRomanPSMT-36" x="175"/>
    </g>
   </g>
   <g id="text_34">
    <!-- 0.019 -->
    <g transform="translate(647.824545 330.143651) scale(0.12 -0.12)">
     <use xlink:href="#TimesNewRomanPSMT-30"/>
     <use xlink:href="#TimesNewRomanPSMT-2e" x="50"/>
     <use xlink:href="#TimesNewRomanPSMT-30" x="75"/>
     <use xlink:href="#TimesNewRomanPSMT-31" x="125"/>
     <use xlink:href="#TimesNewRomanPSMT-39" x="175"/>
    </g>
   </g>
   <g id="text_35">
    <!-- Feature Importance -->
    <g transform="translate(314.903125 23.76) scale(0.18 -0.18)">
     <defs>
      <path id="TimesNewRomanPSMT-20" transform="scale(0.015625)"/>
     </defs>
     <use xlink:href="#TimesNewRomanPSMT-46"/>
     <use xlink:href="#TimesNewRomanPSMT-65" x="55.615234"/>
     <use xlink:href="#TimesNewRomanPSMT-61" x="100"/>
     <use xlink:href="#TimesNewRomanPSMT-74" x="144.384766"/>
     <use xlink:href="#TimesNewRomanPSMT-75" x="172.167969"/>
     <use xlink:href="#TimesNewRomanPSMT-72" x="222.167969"/>
     <use xlink:href="#TimesNewRomanPSMT-65" x="255.46875"/>
     <use xlink:href="#TimesNewRomanPSMT-20" x="299.853516"/>
     <use xlink:href="#TimesNewRomanPSMT-49" x="324.853516"/>
     <use xlink:href="#TimesNewRomanPSMT-6d" x="358.154297"/>
     <use xlink:href="#TimesNewRomanPSMT-70" x="435.9375"/>
     <use xlink:href="#TimesNewRomanPSMT-6f" x="485.9375"/>
     <use xlink:href="#TimesNewRomanPSMT-72" x="535.9375"/>
     <use xlink:href="#TimesNewRomanPSMT-74" x="569.238281"/>
     <use xlink:href="#TimesNewRomanPSMT-61" x="597.021484"/>
     <use xlink:href="#TimesNewRomanPSMT-6e" x="641.40625"/>
     <use xlink:href="#TimesNewRomanPSMT-63" x="691.40625"/>
     <use xlink:href="#TimesNewRomanPSMT-65" x="735.791016"/>
    </g>
   </g>
  </g>
 </g>
 <defs>
  <clipPath id="pd243842b02">
   <rect x="61.04" y="29.76" width="648.16" height="328.122484"/>
  </clipPath>
 </defs>
</svg>
